<?xml version="1.0" encoding="utf-8"?>
<!-- Generator: Adobe Illustrator 23.0.3, SVG Export Plug-In . SVG Version: 6.00 Build 0)  -->
<svg version="1.1" id="Capa_1" xmlns="http://www.w3.org/2000/svg" xmlns:xlink="http://www.w3.org/1999/xlink" x="0px" y="0px"
	viewBox="0 0 424.07 122.2" style="enable-background:new 0 0 424.07 122.2;" xml:space="preserve">
<style type="text/css">
	.st0{fill:#ECEBEB;}
	.st1{fill:#83AD40;}
</style>
<g>
	<g>
		<path class="st0" d="M159.4,83.12h-21.71l-2.92,9.18h-14.61l19.87-58.44h17.03l19.87,58.44h-14.61L159.4,83.12z M155.39,70.59
			l-6.85-21.46l-6.85,21.46H155.39z"/>
		<path class="st0" d="M207.89,73.1h-6.35v19.2h-13.36V33.86h23.37c11.1,0,20.04,8.93,20.04,20.03c0,7.18-4.34,13.69-10.77,16.95
			l12.44,21.46h-14.36L207.89,73.1z M201.54,61.41h10.02c3.67,0,6.68-3.26,6.68-7.51c0-4.26-3.01-7.51-6.68-7.51h-10.02V61.41z"/>
		<path class="st0" d="M242.44,63.08c0-17.2,12.77-30.39,30.39-30.39c10.6,0,19.95,5.26,25.05,13.52l-11.52,6.68
			c-2.59-4.51-7.6-7.18-13.53-7.18c-10.35,0-17.03,6.93-17.03,17.36c0,10.44,6.68,17.37,17.03,17.37c5.93,0,11.02-2.67,13.53-7.18
			l11.52,6.68c-5.01,8.26-14.36,13.52-25.05,13.52C255.21,93.47,242.44,80.28,242.44,63.08z"/>
		<path class="st0" d="M309.97,73.43V33.86h13.36v38.4c0,4.43,2.08,8.18,9.18,8.18c7.1,0,9.18-3.76,9.18-8.18v-38.4h13.36v39.57
			c0,12.52-9.69,20.03-22.54,20.03C319.65,93.47,309.97,85.95,309.97,73.43z"/>
		<path class="st0" d="M400.78,92.3l-9.85-16.86l-9.85,16.86h-15.19l17.45-29.97l-16.61-28.47h15.19l9.02,15.44l9.01-15.44h15.19
			l-16.61,28.47l17.45,29.97H400.78z"/>
	</g>
</g>
<g>
	<path class="st1" d="M27.43,18.31H7.18v59.48c0,14.64,8.21,27.32,20.24,33.81V18.31z"/>
	<path class="st1" d="M55.45,5.59H35.9v109.37c3.11,0.82,6.36,1.29,9.73,1.29c3.4,0,6.68-0.48,9.81-1.31V5.59z"/>
	<path class="st1" d="M63.77,27.59v84.06c12.08-6.48,20.32-19.19,20.32-33.86V27.59H63.77z"/>
</g>
</svg>
